<?xml version="1.0" encoding="iso-8859-1"?>
<!-- Uploaded to: SVG Repo, www.svgrepo.com, Generator: SVG Repo Mixer Tools -->
<!DOCTYPE svg PUBLIC "-//W3C//DTD SVG 1.1//EN" "http://www.w3.org/Graphics/SVG/1.1/DTD/svg11.dtd">
<svg fill="#000000" version="1.1" id="Capa_1" xmlns="http://www.w3.org/2000/svg" xmlns:xlink="http://www.w3.org/1999/xlink" 
	 width="800px" height="800px" viewBox="0 0 352.934 352.933"
	 xml:space="preserve">
<g>
	<g>
		<path d="M314.869,29.284L250.424,0.667c-1.639-0.725-3.463-0.85-5.186-0.42H107.691c-1.727-0.43-3.547-0.305-5.182,0.42
			L38.064,29.284c-4.057,1.801-5.885,6.549-4.084,10.604l59.754,134.566c-16.029,18.909-25.727,43.349-25.727,70.021
			c0,59.803,48.656,108.459,108.459,108.459c59.805,0,108.459-48.656,108.459-108.459c0-26.672-9.697-51.111-25.727-70.021
			l59.754-134.566C320.754,35.833,318.926,31.085,314.869,29.284z M176.466,136.014c-1.68,0-3.35,0.051-5.01,0.129l-24.67-55.555
			h59.359l-24.67,55.555C179.816,136.065,178.146,136.014,176.466,136.014z M213.279,64.52h-73.626l-21.406-48.205h116.438
			L213.279,64.52z M101.685,18.614l53.1,119.58c-18.422,3.756-35.145,12.209-48.898,24.029L51.928,40.711L101.685,18.614z
			 M176.466,336.865c-50.945,0-92.391-41.445-92.391-92.393c0-50.946,41.445-92.39,92.391-92.39
			c50.948,0,92.391,41.444,92.391,92.39C268.857,295.419,227.414,336.865,176.466,336.865z M247.047,162.223
			c-13.754-11.82-30.478-20.273-48.898-24.029l53.101-119.58l49.758,22.098L247.047,162.223z"/>
		<path d="M176.466,172.167c-39.867,0-72.307,32.438-72.307,72.307c0,39.867,32.439,72.307,72.307,72.307
			c39.87,0,72.307-32.439,72.307-72.307C248.773,204.605,216.336,172.167,176.466,172.167z M176.466,300.712
			c-31.01,0-56.238-25.23-56.238-56.238c0-31.01,25.228-56.238,56.238-56.238c31.01,0,56.239,25.229,56.239,56.238
			C232.705,275.482,207.477,300.712,176.466,300.712z"/>
	</g>
</g>
</svg>